<svg xmlns="http://www.w3.org/2000/svg" width="1920.59" height="101.452" viewBox="0 0 1920.59 101.452">
  <path id="wave-footer-path-desktop" d="M4126.24-41.939H2205.65V-72.454c14.26-1.067,27.908-4.942,40.73-9.725l.046-.015c15.147-6.623,24.011-12.807,29.892-18.26,36.02-33.417,51.527-31.355,60.51-30.253-5.885,8.566-6.777,16.714-5.076,23.944,3.834,16.3,20.6,25.295,37.169,22.908,17.059-2.453,36.71-8.725,59.005-28.846,36.478-32.917,51.527-31.355,60.51-30.253-15.693,22.857,1.69,54.8,29.83,62.546.077.015.15.036.227.057,1.876.5,26.367,13.235,64.674-20.1,37.061-32.257,51.527-31.355,60.51-30.253-5.88,8.566-6.777,16.714-5.077,23.944,3.834,16.3,26.258,22.568,37.169,22.908,18.863.588,43.5-5.829,69.735-28.876,36.916-32.422,57.918-31.324,66.9-30.222-.155.227-.314.459-.464.685-16.327,24.331,10.153,55.1,30.041,57.557,11.05,1.366,29.789,2.355,51.842-15.745,37.983-31.17,51.527-31.355,60.51-30.253-5.885,8.566-6.777,16.714-5.076,23.944,3.834,16.3,20.6,25.295,37.169,22.908,17.059-2.453,36.71-8.725,59.005-28.846,36.478-32.917,51.527-31.355,60.51-30.253-15.693,22.857,1.69,54.8,29.825,62.546.077.015.15.036.227.057,1.876.5,26.367,13.235,64.68-20.1,37.061-32.257,51.527-31.355,60.51-30.253-5.881,8.566-6.778,16.714-5.077,23.944,3.834,16.3,26.258,22.568,37.169,22.908,18.858.588,43.5-5.829,69.735-28.876,36.911-32.422,57.918-31.324,66.9-30.222-15.693,22.857-10.164,85.768,58.614,61.66,46.367-16.252,45.852-47.625,78.425-49.415-5.885,8.566-6.777,16.714-5.076,23.944,3.834,16.3,20.6,25.295,37.168,22.908,17.059-2.453,36.71-8.725,59.005-28.846,36.478-32.917,51.527-31.355,60.51-30.253-15.693,22.857,1.7,54.8,29.83,62.546.077.015.149.036.227.057,1.876.5,26.367,13.235,64.674-20.1,37.066-32.257,51.528-31.355,60.51-30.253-5.88,8.566-6.777,16.714-5.076,23.944,3.834,16.3,26.263,22.568,37.169,22.908,18.863.588,43.5-5.829,69.735-28.876,36.916-32.422,57.918-31.324,66.9-30.222-15.693,22.857-6.917,36.8,6.344,45.121,0,0,0,.005.01.005,7.246,3.592,14.714,7.04,22.986,9.246.077.015.149.036.227.057,1.876.5,3.8.933,5.767,1.283l.34.062c13.142,2.3,28.444,1.149,47.914-7.231Z" transform="translate(-2205.65 143.391)" fill="#172c48"/>
</svg>
