<svg xmlns="http://www.w3.org/2000/svg" width="17.224" height="17.224" viewBox="0 0 17.224 17.224">
  <path id="Path_15903" data-name="Path 15903" d="M1563.772,7530.782a1.053,1.053,0,1,0,1.053,1.054,1.063,1.063,0,0,0-1.053-1.054m-4.593,8.517a2.87,2.87,0,1,1,2.871-2.871,2.819,2.819,0,0,1-2.871,2.871m0-7.271a4.33,4.33,0,0,0-4.4,4.4,4.4,4.4,0,1,0,4.4-4.4m0-4.21a28.413,28.413,0,0,0-3.541.1,5.939,5.939,0,0,0-2.105.383,4.018,4.018,0,0,0-2.488,2.487,4.375,4.375,0,0,0-.382,2.107,65.613,65.613,0,0,0,0,7.081,5.911,5.911,0,0,0,.382,2.1,4.012,4.012,0,0,0,2.488,2.488,5.918,5.918,0,0,0,2.105.382,65.536,65.536,0,0,0,7.081,0,5.919,5.919,0,0,0,2.105-.382,4.011,4.011,0,0,0,2.488-2.488,5.9,5.9,0,0,0,.383-2.1c0-.957.1-1.245.1-3.541a28.217,28.217,0,0,0-.1-3.54,5.922,5.922,0,0,0-.383-2.107,4.016,4.016,0,0,0-2.488-2.487,5.94,5.94,0,0,0-2.105-.383,28.411,28.411,0,0,0-3.54-.1m0,1.531a26.809,26.809,0,0,1,3.445.094,4.448,4.448,0,0,1,1.627.287,3.373,3.373,0,0,1,1.627,1.627,4.442,4.442,0,0,1,.287,1.626c0,.861.1,1.149.1,3.445a26.42,26.42,0,0,1-.1,3.444,4.446,4.446,0,0,1-.287,1.627,3.357,3.357,0,0,1-1.627,1.627,4.446,4.446,0,0,1-1.627.286c-.861,0-1.148.1-3.445.1a26.41,26.41,0,0,1-3.445-.1,4.447,4.447,0,0,1-1.626-.286,3.354,3.354,0,0,1-1.627-1.627,4.445,4.445,0,0,1-.287-1.627c0-.86-.1-1.148-.1-3.444a26.511,26.511,0,0,1,.1-3.445,4.441,4.441,0,0,1,.287-1.626,3.421,3.421,0,0,1,.67-.957,1.631,1.631,0,0,1,.957-.671,4.449,4.449,0,0,1,1.626-.287,26.818,26.818,0,0,1,3.445-.094" transform="translate(-1550.567 -7527.816)" fill="#fff" fill-rule="evenodd"/>
</svg>
