<svg xmlns="http://www.w3.org/2000/svg" width="17.224" height="13.969" viewBox="0 0 17.224 13.969">
  <path id="Path_15902" data-name="Path 15902" d="M1650.776,7545.133a9.958,9.958,0,0,0,10.047-10.045v-.479a7.775,7.775,0,0,0,1.722-1.816,8.017,8.017,0,0,1-2.01.573,3.715,3.715,0,0,0,1.531-1.913,8.752,8.752,0,0,1-2.2.86,3.421,3.421,0,0,0-2.584-1.147,3.6,3.6,0,0,0-3.54,3.541,1.864,1.864,0,0,0,.1.765,9.889,9.889,0,0,1-7.272-3.732,3.671,3.671,0,0,0-.478,1.818,3.8,3.8,0,0,0,1.531,2.965,3.22,3.22,0,0,1-1.627-.478,3.5,3.5,0,0,0,2.87,3.445,2.965,2.965,0,0,1-.957.1,1.632,1.632,0,0,1-.67-.1,3.624,3.624,0,0,0,3.349,2.488,7.227,7.227,0,0,1-4.4,1.53,2.649,2.649,0,0,1-.861-.1,9.026,9.026,0,0,0,5.454,1.722" transform="translate(-1645.322 -7531.164)" fill="#fff" fill-rule="evenodd"/>
</svg>
