<svg xmlns="http://www.w3.org/2000/svg" width="10.146" height="10.147" viewBox="0 0 10.146 10.147">
  <g id="moon-icon" style="mix-blend-mode: normal;isolation: isolate">
    <path id="Path_15907" data-name="Path 15907" d="M4.047.1A5.08,5.08,0,0,1,4.582.022,5.171,5.171,0,0,1,5.121,0a.181.181,0,0,1,.062.35A3.382,3.382,0,0,0,3.115,4.17v.006A3.381,3.381,0,0,0,7.1,6.8H7.11A3.382,3.382,0,0,0,9.721,4.249a.181.181,0,0,1,.354.012A5.072,5.072,0,1,1,3.869.142L3.957.122h0L4.047.1Z" transform="translate(0.004 0.003)" fill="#797979"/>
  </g>
</svg>
