<svg xmlns="http://www.w3.org/2000/svg" width="375.149" height="51.574" viewBox="0 0 375.149 51.574">
  <path id="Path_16090" data-name="Path 16090" d="M308.72,748.19V763.7H683.527s.341-15.518.341-31.341a102.477,102.477,0,0,0-13.481,4.667c-10.2,4.26-18.217,4.847-25.1,3.676l-.178-.031c-1.031-.178-2.038-.4-3.021-.652-.04-.011-.078-.021-.119-.029a65.53,65.53,0,0,1-12.042-4.7s0,0-.005,0c-6.947-4.229-11.545-11.318-3.324-22.938-4.706-.561-15.709-1.12-35.049,15.365-13.744,11.715-27.594,13.431-36.534,14.679-8.681,1.213-17.464-3.361-19.473-11.646-.891-3.676-.421-7.818,2.659-12.172-4.706-.561-12.284-1.019-31.7,15.379-20.07,16.95-32.9,10.475-33.884,10.221-.04-.01-.078-.021-.119-.029-14.74-3.936-23.848-20.177-15.626-31.8-4.706-.561-12.59-1.355-31.7,15.379-11.68,10.228-21.975,13.417-30.913,14.664-8.681,1.213-17.464-3.361-19.473-11.646-.891-3.676-.424-7.818,2.659-12.172-4.706-.561-12.83-1.609-31.7,15.379-3.081,2.772-7.725,5.916-15.66,9.283l-.024.008A79.922,79.922,0,0,1,308.72,748.19Z" transform="translate(-308.72 -712.129)" fill="#fff"/>
</svg>
