<svg xmlns="http://www.w3.org/2000/svg" width="73.986" height="67.542" viewBox="0 0 73.986 67.542">
  <g id="Group_8967" data-name="Group 8967" transform="translate(0 1)">
    <ellipse id="Ellipse_60" data-name="Ellipse 60" cx="20.468" cy="20.468" rx="20.468" ry="20.468" transform="translate(0 25.605)" fill="#f16f5b" opacity="0.13"/>
    <g id="Group_8966" data-name="Group 8966" transform="translate(11.663 0)">
      <path id="Path_15942" data-name="Path 15942" d="M1272.035,221.2c0,2.954-2.1,5.35-4.683,5.35h-45.9c-2.587,0-4.684-2.4-4.684-5.35v-31.15c0-2.955,2.1-5.35,4.684-5.35h40.15" transform="translate(-1216.764 -163.026)" fill="none" stroke="#770071" stroke-linecap="round" stroke-linejoin="round" stroke-width="2"/>
      <path id="Path_15943" data-name="Path 15943" d="M1243.64,204.571v5.41h-12.484V197.5h8.382" transform="translate(-1222.061 -167.734)" fill="none" stroke="#770071" stroke-linecap="round" stroke-linejoin="round" stroke-width="2"/>
      <line id="Line_103" data-name="Line 103" x2="17.389" transform="translate(27.635 31.175)" fill="none" stroke="#770071" stroke-linecap="round" stroke-linejoin="round" stroke-width="2"/>
      <line id="Line_104" data-name="Line 104" x2="17.389" transform="translate(27.635 38.084)" fill="none" stroke="#770071" stroke-linecap="round" stroke-linejoin="round" stroke-width="2"/>
      <rect id="Rectangle_5024" data-name="Rectangle 5024" width="12.375" height="29.109" rx="1" transform="translate(49.083 6.896)" fill="#f16f5b"/>
      <g id="Group_8964" data-name="Group 8964" transform="translate(52.591 0)">
        <line id="Line_105" data-name="Line 105" y1="6.896" fill="none" stroke="#f16f5b" stroke-linecap="round" stroke-linejoin="round" stroke-width="2"/>
        <line id="Line_106" data-name="Line 106" y1="6.896" transform="translate(5.359)" fill="none" stroke="#f16f5b" stroke-linecap="round" stroke-linejoin="round" stroke-width="2"/>
      </g>
      <line id="Line_107" data-name="Line 107" x2="11.827" transform="translate(49.357)" fill="none" stroke="#f16f5b" stroke-linecap="round" stroke-linejoin="round" stroke-width="2"/>
      <path id="Rectangle_5025" data-name="Rectangle 5025" d="M0,0H5.14a0,0,0,0,1,0,0V7.29A2.57,2.57,0,0,1,2.57,9.86h0A2.57,2.57,0,0,1,0,7.29V0A0,0,0,0,1,0,0Z" transform="translate(52.701 33.456)" fill="#f16f5b"/>
      <line id="Line_108" data-name="Line 108" y2="11.443" transform="translate(55.271 43.316)" fill="none" stroke="#f16f5b" stroke-linecap="round" stroke-linejoin="round" stroke-width="2"/>
      <line id="Line_109" data-name="Line 109" x1="4.435" transform="translate(56.888 22.391)" fill="none" stroke="#fff" stroke-linecap="round" stroke-linejoin="round" stroke-width="2"/>
      <line id="Line_110" data-name="Line 110" x1="4.435" transform="translate(56.888 26.731)" fill="none" stroke="#fff" stroke-linecap="round" stroke-linejoin="round" stroke-width="2"/>
      <path id="Path_15944" data-name="Path 15944" d="M1236.2,197.917l2.96,3.582,7.663-9.208" transform="translate(-1222.874 -163.416)" fill="none" stroke="#f16f5b" stroke-linecap="round" stroke-linejoin="round" stroke-width="2"/>
      <g id="Group_8965" data-name="Group 8965" transform="translate(9.22 48.148)">
        <path id="Path_15945" data-name="Path 15945" d="M1234.325,232.675a2.768,2.768,0,0,1-1.144-.24,3.025,3.025,0,0,1-.946-.661,3.156,3.156,0,0,1-.646-.973,2.962,2.962,0,0,1-.235-1.174,3.022,3.022,0,0,1,.228-1.166,3.094,3.094,0,0,1,.635-.972,2.968,2.968,0,0,1,.946-.661,2.834,2.834,0,0,1,1.163-.239,2.95,2.95,0,0,1,1,.167,2.881,2.881,0,0,1,.882.509.177.177,0,0,1,.068.148.253.253,0,0,1-.061.167.208.208,0,0,1-.167.072.175.175,0,0,1-.061-.011.332.332,0,0,1-.06-.031.694.694,0,0,1-.069-.049,1.852,1.852,0,0,0-.691-.4,2.775,2.775,0,0,0-.835-.121,2.285,2.285,0,0,0-.965.209,2.653,2.653,0,0,0-.805.57,2.7,2.7,0,0,0-.548.825,2.474,2.474,0,0,0-.2.98,2.571,2.571,0,0,0,.2,1,2.664,2.664,0,0,0,.543.828,2.522,2.522,0,0,0,.8.558,2.374,2.374,0,0,0,.973.2,2.533,2.533,0,0,0,.839-.137,2.389,2.389,0,0,0,.733-.418.164.164,0,0,1,.145-.038.266.266,0,0,1,.144.076.216.216,0,0,1,.061.16.426.426,0,0,1-.008.084.149.149,0,0,1-.046.076,1.973,1.973,0,0,1-.862.513A3.637,3.637,0,0,1,1234.325,232.675Z" transform="translate(-1231.354 -226.589)" stroke="#770071" stroke-linecap="round" stroke-linejoin="round" stroke-width="1"/>
        <path id="Path_15946" data-name="Path 15946" d="M1245.1,232.675a3.147,3.147,0,0,1-1.208-.228,2.927,2.927,0,0,1-1.611-1.611,3.3,3.3,0,0,1,0-2.413,2.95,2.95,0,0,1,.642-.965,2.92,2.92,0,0,1,.969-.642,3.311,3.311,0,0,1,2.413,0,2.946,2.946,0,0,1,1.607,1.607,3.3,3.3,0,0,1,0,2.413,2.937,2.937,0,0,1-1.607,1.611A3.12,3.12,0,0,1,1245.1,232.675Zm0-.456a2.653,2.653,0,0,0,1.018-.194,2.5,2.5,0,0,0,1.372-1.372,2.794,2.794,0,0,0,0-2.044,2.5,2.5,0,0,0-1.372-1.372,2.8,2.8,0,0,0-2.044,0,2.5,2.5,0,0,0-1.371,1.372,2.787,2.787,0,0,0,0,2.044,2.492,2.492,0,0,0,1.371,1.372A2.672,2.672,0,0,0,1245.1,232.219Z" transform="translate(-1236.071 -226.589)" stroke="#770071" stroke-linecap="round" stroke-linejoin="round" stroke-width="1"/>
        <path id="Path_15947" data-name="Path 15947" d="M1256.724,232.662a.209.209,0,0,1-.205-.144l-2.279-5.417a.268.268,0,0,1,0-.273.241.241,0,0,1,.422.06l2.188,5.235h-.22l2.158-5.2a.294.294,0,0,1,.1-.148.266.266,0,0,1,.152-.042.177.177,0,0,1,.182.114.336.336,0,0,1-.015.259l-2.272,5.417a.223.223,0,0,1-.095.114A.23.23,0,0,1,1256.724,232.662Z" transform="translate(-1241.439 -226.652)" stroke="#770071" stroke-linecap="round" stroke-linejoin="round" stroke-width="1"/>
        <path id="Path_15948" data-name="Path 15948" d="M1265.338,232.662a.22.22,0,0,1-.228-.228v-5.478a.228.228,0,1,1,.456,0v5.478a.22.22,0,0,1-.228.228Z" transform="translate(-1246.318 -226.652)" stroke="#770071" stroke-linecap="round" stroke-linejoin="round" stroke-width="1"/>
        <path id="Path_15949" data-name="Path 15949" d="M1268.963,232.662a.221.221,0,0,1-.227-.228v-5.478a.218.218,0,0,1,.065-.167.226.226,0,0,1,.162-.061h1.368a3.208,3.208,0,0,1,1.2.217,2.753,2.753,0,0,1,1.558,1.554,3.4,3.4,0,0,1,0,2.39,2.743,2.743,0,0,1-1.558,1.558,3.208,3.208,0,0,1-1.2.216Zm.229-.41h1.14a2.509,2.509,0,0,0,1.3-.334,2.4,2.4,0,0,0,.889-.912,2.826,2.826,0,0,0,0-2.625,2.409,2.409,0,0,0-.889-.908,2.514,2.514,0,0,0-1.3-.334h-1.14Z" transform="translate(-1247.864 -226.652)" stroke="#770071" stroke-linecap="round" stroke-linejoin="round" stroke-width="1"/>
        <path id="Path_15950" data-name="Path 15950" d="M1278.728,233.846a.221.221,0,0,1-.228-.228.234.234,0,0,1,.064-.171.222.222,0,0,1,.164-.064h1.846a.235.235,0,0,1,.167.064.226.226,0,0,1,.068.171.215.215,0,0,1-.068.163.235.235,0,0,1-.167.065Z" transform="translate(-1252.221 -229.682)" stroke="#770071" stroke-linecap="round" stroke-linejoin="round" stroke-width="1"/>
        <path id="Path_15951" data-name="Path 15951" d="M1285.5,232.656a.234.234,0,0,1-.167-.064.214.214,0,0,1-.068-.163v-5.159l-.9.3a.255.255,0,0,1-.1.022.22.22,0,0,1-.228-.228.259.259,0,0,1,.034-.129.211.211,0,0,1,.11-.092l1.163-.387a.618.618,0,0,1,.083-.027.324.324,0,0,1,.076-.011.221.221,0,0,1,.228.228v5.486a.22.22,0,0,1-.228.228Z" transform="translate(-1254.579 -226.646)" stroke="#770071" stroke-linecap="round" stroke-linejoin="round" stroke-width="1"/>
        <path id="Path_15952" data-name="Path 15952" d="M1290.949,226.714a1.774,1.774,0,1,1-.912,3.313,1.728,1.728,0,0,1-.635-.638,1.888,1.888,0,0,1,0-1.812,1.706,1.706,0,0,1,.635-.63A1.8,1.8,0,0,1,1290.949,226.714Zm-.008.448a1.307,1.307,0,0,0-.672.175,1.291,1.291,0,0,0-.65,1.147,1.327,1.327,0,0,0,.175.677,1.271,1.271,0,0,0,.475.478,1.4,1.4,0,0,0,1.352,0,1.281,1.281,0,0,0,.475-.478,1.347,1.347,0,0,0,.175-.684,1.289,1.289,0,0,0-.175-.668,1.3,1.3,0,0,0-.475-.471A1.327,1.327,0,0,0,1290.941,227.162Zm1.573,2.181-1.945,3.184a.248.248,0,0,1-.213.129.22.22,0,0,1-.152-.053.228.228,0,0,1-.076-.136.25.25,0,0,1,.03-.167l1.368-2.212Z" transform="translate(-1256.915 -226.646)" stroke="#770071" stroke-linecap="round" stroke-linejoin="round" stroke-width="1"/>
      </g>
    </g>
  </g>
</svg>
