<svg id="Group_8948" data-name="Group 8948" xmlns="http://www.w3.org/2000/svg" width="66.687" height="66.363" viewBox="0 0 66.687 66.363">
  <ellipse id="Ellipse_48" data-name="Ellipse 48" cx="20.468" cy="20.468" rx="20.468" ry="20.468" transform="translate(0 25.427)" fill="#f16f5b" opacity="0.13"/>
  <g id="Group_8947" data-name="Group 8947" transform="translate(2.887 0)">
    <path id="Path_15911" data-name="Path 15911" d="M172.642,171.472l-5.2-10.736-13.42,28.435,13.337,28.183,4.781-9.9" transform="translate(-135.977 -154.465)" fill="none" stroke="#770071" stroke-linecap="round" stroke-linejoin="round" stroke-width="2"/>
    <path id="Path_15912" data-name="Path 15912" d="M156.389,160.735l-13.337,28.309,13.756,28.644" transform="translate(-131.97 -154.465)" fill="none" stroke="#770071" stroke-linecap="round" stroke-linejoin="round" stroke-width="2"/>
    <path id="Path_15913" data-name="Path 15913" d="M170.806,205.377s9.855-1.846,15.979,2.474a14.935,14.935,0,0,0,12.33,2.349v-3.1l5.619,3.187-5.494,3.187" transform="translate(-142.109 -170.631)" fill="none" stroke="#770071" stroke-linecap="round" stroke-linejoin="round" stroke-width="2"/>
    <path id="Path_15914" data-name="Path 15914" d="M175.96,225.361s6.92-1.175,11.659,1.8,8.388,2.978,13.672,3.187v-3.146l5.326,3.146-5.2,3.1" transform="translate(-143.992 -177.991)" fill="none" stroke="#770071" stroke-linecap="round" stroke-linejoin="round" stroke-width="2"/>
    <path id="Path_15915" data-name="Path 15915" d="M201.747,190.654a20.573,20.573,0,0,0,8.776.912v-3.491l5.515,3.61-5.64,3.279" transform="translate(-153.412 -164.453)" fill="none" stroke="#770071" stroke-linecap="round" stroke-linejoin="round" stroke-width="2"/>
    <path id="Path_15916" data-name="Path 15916" d="M201.747,159.894s8.545-.755,7.706,9.185c0-4.4,1.426-9.2,7.759-9.2-4.991,0-7.733-3.678-7.733-9.025C209.479,155.732,207.472,159.894,201.747,159.894Z" transform="translate(-153.412 -150.856)" fill="#f16f5b"/>
    <path id="Path_15917" data-name="Path 15917" d="M187.191,179.151s5.307-.469,4.786,5.7c0-2.735.886-5.713,4.819-5.713-3.1,0-4.8-2.284-4.8-5.605C191.994,176.565,190.746,179.151,187.191,179.151Z" transform="translate(-148.095 -159.142)" fill="#f16f5b"/>
    <path id="Path_15918" data-name="Path 15918" d="M175.629,185.713a4.968,4.968,0,0,1,3.287,0" transform="translate(-143.871 -163.49)" fill="none" stroke="#770071" stroke-linecap="round" stroke-linejoin="round" stroke-width="2"/>
    <ellipse id="Ellipse_49" data-name="Ellipse 49" cx="1.263" cy="1.263" rx="1.263" ry="1.263" transform="translate(10.537 13.651)" fill="#f16f5b"/>
    <ellipse id="Ellipse_50" data-name="Ellipse 50" cx="1.263" cy="1.263" rx="1.263" ry="1.263" transform="translate(1.24 46.508)" fill="#f16f5b"/>
    <ellipse id="Ellipse_51" data-name="Ellipse 51" cx="0.878" cy="0.878" rx="0.878" ry="0.878" transform="translate(10.81 52.822)" fill="#f16f5b"/>
    <ellipse id="Ellipse_52" data-name="Ellipse 52" cx="1.714" cy="1.714" rx="1.714" ry="1.714" transform="translate(0 20.267)" fill="#f16f5b"/>
    <ellipse id="Ellipse_53" data-name="Ellipse 53" cx="2.301" cy="2.301" rx="2.301" ry="2.301" transform="translate(1.803 33.017)" fill="#f16f5b"/>
  </g>
</svg>
