<svg xmlns="http://www.w3.org/2000/svg" width="66.27" height="67.528" viewBox="0 0 66.27 67.528">
  <g id="Group_8955" data-name="Group 8955" transform="translate(0 0.994)">
    <ellipse id="Ellipse_56" data-name="Ellipse 56" cx="20.468" cy="20.468" rx="20.468" ry="20.468" transform="translate(0 25.598)" fill="#f16f5b" opacity="0.13"/>
    <g id="Group_8954" data-name="Group 8954" transform="translate(1.747 0)">
      <path id="Path_15930" data-name="Path 15930" d="M919.6,176.651a2.053,2.053,0,0,0-2.26-2.24c-.73-.025-1.462-.006-2.193-.006-2.362,0-2.359,0-3.235-2.131a8.426,8.426,0,0,0-.65-1.4c-.385-.592-.214-.963.263-1.4q1.421-1.313,2.738-2.735a1.972,1.972,0,0,0,.034-2.985q-3.972-4.056-8.026-8.03a1.952,1.952,0,0,0-2.978.03c-.633.581-1.221,1.211-1.828,1.82-1.48,1.486-1.478,1.482-3.373.674a11.219,11.219,0,0,0-1.563-.587,1.036,1.036,0,0,1-.912-1.255c.077-1.2.041-2.407.015-3.611a2.114,2.114,0,0,0-2.4-2.363q-5.419-.026-10.838,0a2.046,2.046,0,0,0-2.3,2.3c-.032,1.289-.027,2.581,0,3.87.01.494-.173.684-.618.959-1.074.662-2.423,1.435-3.551,1.325-1.224-.119-1.917-1.7-2.91-2.57-.1-.085-.182-.183-.274-.273-1.351-1.317-2.323-1.336-3.648-.021q-3.709,3.68-7.39,7.388c-1.275,1.284-1.276,2.28-.045,3.555a7.717,7.717,0,0,0,1.01.994c1.755,1.25,1.662,2.32,1.008,4.639a5.586,5.586,0,0,1-.362.958c-.288.591-.486.893-1.175.858-1.2-.06-2.408-.03-3.612-.012-1.708.026-2.388.718-2.4,2.454-.016,1.763,0,3.526,0,5.29h0c0,1.892-.031,3.785.011,5.676a1.98,1.98,0,0,0,2.107,2.1c.773.034,1.548.007,2.322.007,2.349,0,2.347,0,3.226,2.116a9.65,9.65,0,0,0,.645,1.4c.368.594.212.98-.27,1.427q-1.418,1.314-2.735,2.737a1.986,1.986,0,0,0-.025,2.989q3.973,4.053,8.035,8.02a1.959,1.959,0,0,0,2.983-.04c.635-.579,1.222-1.21,1.83-1.818,1.494-1.494,1.494-1.491,3.372-.693a10.315,10.315,0,0,0,1.555.608,1.034,1.034,0,0,1,.923,1.251c-.068,1.243-.047,2.494-.007,3.74a2.035,2.035,0,0,0,2.253,2.239q5.483.041,10.967,0a2.115,2.115,0,0,0,2.322-2.33q.047-1.934-.005-3.87a.832.832,0,0,1,.625-.944c1.2-.454,2.431-1.447,3.553-1.327,1.2.129,1.919,1.69,2.9,2.562.1.085.184.182.275.272,1.358,1.33,2.279,1.344,3.624.012q3.211-3.176,6.4-6.375c2.628-2.624,2.717-3.055-.01-5.527-1.574-1.427-1.648-2.329-.982-4.644a4.6,4.6,0,0,1,.33-.831c.389-.812.656-1.038,1.451-.992,1.114.064,2.236.027,3.353.013,1.627-.02,2.44-.74,2.456-2.319Q919.655,182.134,919.6,176.651ZM887.778,198.3c-9.165-.048-15.959-6.977-15.924-16.242A16.01,16.01,0,1,1,887.778,198.3Z" transform="translate(-856.106 -150.419)" fill="none" stroke="#770071" stroke-linecap="round" stroke-linejoin="round" stroke-width="2"/>
      <path id="Path_15931" data-name="Path 15931" d="M909.918,193.492h-6.17v-6.243h-4.826v6.243H892.87V198.4h6.052v5.807h4.826V198.4h6.17Z" transform="translate(-869.633 -163.97)" fill="#f16f5b"/>
    </g>
  </g>
</svg>
