<svg xmlns="http://www.w3.org/2000/svg" width="56.176" height="69.175" viewBox="0 0 56.176 69.175">
  <g id="Group_8976" data-name="Group 8976" transform="translate(0 1)">
    <ellipse id="Ellipse_62" data-name="Ellipse 62" cx="20.468" cy="20.468" rx="20.468" ry="20.468" transform="translate(0 26.958)" fill="#f16f5b" opacity="0.13"/>
    <g id="Group_8975" data-name="Group 8975" transform="translate(5.609 0)">
      <path id="Rectangle_5027" data-name="Rectangle 5027" d="M0,0H16.572a0,0,0,0,1,0,0V50.886a8.286,8.286,0,0,1-8.286,8.286h0A8.286,8.286,0,0,1,0,50.886V0A0,0,0,0,1,0,0Z" transform="translate(29.666 8.003)" fill="none" stroke="#770071" stroke-linecap="round" stroke-linejoin="round" stroke-width="2"/>
      <path id="Path_15959" data-name="Path 15959" d="M1430.13,208.189a13.421,13.421,0,1,1,.054-25.871" transform="translate(-1403.949 -161.074)" fill="none" stroke="#770071" stroke-linecap="round" stroke-linejoin="round" stroke-width="2"/>
      <line id="Line_123" data-name="Line 123" y2="41.865" transform="translate(37.952 8.003)" fill="none" stroke="#f16f5b" stroke-linecap="round" stroke-linejoin="round" stroke-width="2"/>
      <rect id="Rectangle_5029" data-name="Rectangle 5029" width="5.63" height="10.756" rx="2.815" transform="translate(35.296 49.868)" fill="#f16f5b"/>
      <ellipse id="Ellipse_63" data-name="Ellipse 63" cx="2.514" cy="2.514" rx="2.514" ry="2.514" transform="translate(19.928 25.142)" fill="#f16f5b"/>
      <ellipse id="Ellipse_64" data-name="Ellipse 64" cx="2.302" cy="2.302" rx="2.302" ry="2.302" transform="translate(14.935 34.49)" fill="#f16f5b"/>
      <line id="Line_116" data-name="Line 116" y1="3.435" transform="translate(22.619 17.316)" fill="none" stroke="#770071" stroke-linecap="round" stroke-linejoin="round" stroke-width="2"/>
      <line id="Line_117" data-name="Line 117" x1="2.26" y1="3.283" transform="translate(13.589 19.299)" fill="none" stroke="#770071" stroke-linecap="round" stroke-linejoin="round" stroke-width="2"/>
      <line id="Line_118" data-name="Line 118" x1="3.598" y1="2.125" transform="translate(7.286 25.531)" fill="none" stroke="#770071" stroke-linecap="round" stroke-linejoin="round" stroke-width="2"/>
      <line id="Line_119" data-name="Line 119" x1="3.78" transform="translate(5.418 34.172)" fill="none" stroke="#770071" stroke-linecap="round" stroke-linejoin="round" stroke-width="2"/>
      <line id="Line_120" data-name="Line 120" x1="3.359" y2="2.126" transform="translate(7.675 40.952)" fill="none" stroke="#770071" stroke-linecap="round" stroke-linejoin="round" stroke-width="2"/>
      <line id="Line_121" data-name="Line 121" x1="2.04" y2="3.106" transform="translate(13.961 45.85)" fill="none" stroke="#770071" stroke-linecap="round" stroke-linejoin="round" stroke-width="2"/>
      <line id="Line_122" data-name="Line 122" y2="4.55" transform="translate(22.619 47.592)" fill="none" stroke="#770071" stroke-linecap="round" stroke-linejoin="round" stroke-width="2"/>
      <ellipse id="Ellipse_65" data-name="Ellipse 65" cx="2.709" cy="2.709" rx="2.709" ry="2.709" transform="translate(19.91 11.482)" fill="none" stroke="#770071" stroke-linecap="round" stroke-linejoin="round" stroke-width="2"/>
      <ellipse id="Ellipse_66" data-name="Ellipse 66" cx="2.709" cy="2.709" rx="2.709" ry="2.709" transform="translate(19.91 52.143)" fill="none" stroke="#770071" stroke-linecap="round" stroke-linejoin="round" stroke-width="2"/>
      <ellipse id="Ellipse_67" data-name="Ellipse 67" cx="2.709" cy="2.709" rx="2.709" ry="2.709" transform="translate(9.301 14.096)" fill="none" stroke="#770071" stroke-linecap="round" stroke-linejoin="round" stroke-width="2"/>
      <ellipse id="Ellipse_68" data-name="Ellipse 68" cx="2.709" cy="2.709" rx="2.709" ry="2.709" transform="translate(9.301 48.829)" fill="none" stroke="#770071" stroke-linecap="round" stroke-linejoin="round" stroke-width="2"/>
      <ellipse id="Ellipse_69" data-name="Ellipse 69" cx="2.709" cy="2.709" rx="2.709" ry="2.709" transform="translate(2.289 20.751)" fill="none" stroke="#770071" stroke-linecap="round" stroke-linejoin="round" stroke-width="2"/>
      <ellipse id="Ellipse_70" data-name="Ellipse 70" cx="2.709" cy="2.709" rx="2.709" ry="2.709" transform="translate(2.289 42.015)" fill="none" stroke="#770071" stroke-linecap="round" stroke-linejoin="round" stroke-width="2"/>
      <ellipse id="Ellipse_71" data-name="Ellipse 71" cx="2.709" cy="2.709" rx="2.709" ry="2.709" transform="translate(0 31.463)" fill="none" stroke="#770071" stroke-linecap="round" stroke-linejoin="round" stroke-width="2"/>
      <rect id="Rectangle_5028" data-name="Rectangle 5028" width="22.875" height="8.003" transform="translate(26.691)" fill="none" stroke="#770071" stroke-linecap="round" stroke-linejoin="round" stroke-width="2"/>
    </g>
  </g>
</svg>
