<svg xmlns="http://www.w3.org/2000/svg" width="52.338" height="67.137" viewBox="0 0 52.338 67.137">
  <g id="Group_8950" data-name="Group 8950" transform="translate(0 1)">
    <ellipse id="Ellipse_54" data-name="Ellipse 54" cx="20.468" cy="20.468" rx="20.468" ry="20.468" transform="translate(0 25.201)" fill="#f16f5b" opacity="0.13"/>
    <g id="Group_8949" data-name="Group 8949" transform="translate(14.67 0)">
      <rect id="Rectangle_5018" data-name="Rectangle 5018" width="9.014" height="7.504" transform="translate(9.118)" fill="none" stroke="#770071" stroke-linecap="round" stroke-linejoin="round" stroke-width="2"/>
      <path id="Path_15919" data-name="Path 15919" d="M357.432,154.389h12.553l5.673,5.368s-3.2,3.234-6.894-1.068H357.432" transform="translate(-339.266 -152.498)" fill="none" stroke="#770071" stroke-linecap="round" stroke-linejoin="round" stroke-width="2"/>
      <rect id="Rectangle_5019" data-name="Rectangle 5019" width="5.457" height="5.457" transform="translate(10.897 7.504)" fill="none" stroke="#770071" stroke-linecap="round" stroke-linejoin="round" stroke-width="2"/>
      <path id="Rectangle_5020" data-name="Rectangle 5020" d="M5.116,0H8.062a5.116,5.116,0,0,1,5.116,5.116V6.589a0,0,0,0,1,0,0H0a0,0,0,0,1,0,0V5.116A5.116,5.116,0,0,1,5.116,0Z" transform="translate(7.036 12.961)" fill="none" stroke="#770071" stroke-linecap="round" stroke-linejoin="round" stroke-width="2"/>
      <path id="Rectangle_5021" data-name="Rectangle 5021" d="M8.489,0H18.761A8.489,8.489,0,0,1,27.25,8.489v.27a0,0,0,0,1,0,0H0a0,0,0,0,1,0,0v-.27A8.489,8.489,0,0,1,8.489,0Z" transform="translate(0 19.55)" fill="none" stroke="#770071" stroke-linecap="round" stroke-linejoin="round" stroke-width="2"/>
      <path id="Rectangle_5022" data-name="Rectangle 5022" d="M0,0H27.25a0,0,0,0,1,0,0V32.531a2,2,0,0,1-2,2H2a2,2,0,0,1-2-2V0A0,0,0,0,1,0,0Z" transform="translate(0 28.308)" fill="none" stroke="#770071" stroke-linecap="round" stroke-linejoin="round" stroke-width="2"/>
      <line id="Line_90" data-name="Line 90" x2="27.25" transform="translate(0 54.481)" fill="none" stroke="#770071" stroke-linecap="round" stroke-linejoin="round" stroke-width="2"/>
      <path id="Path_15920" data-name="Path 15920" d="M353.413,210.695h-5.178v-5.239h-4.05v5.239h-5.079v4.118h5.079v4.873h4.05v-4.873h5.178Z" transform="translate(-332.634 -170.978)" fill="#f16f5b"/>
      <path id="Path_15921" data-name="Path 15921" d="M384.316,174.865a3.241,3.241,0,0,1-6.481.147c-.041-1.79,1.846-4.672,3.119-5.434C382.711,170.729,384.276,173.075,384.316,174.865Z" transform="translate(-346.649 -156.618)" fill="#f16f5b"/>
    </g>
  </g>
</svg>
