<svg xmlns="http://www.w3.org/2000/svg" width="83.68" height="67.705" viewBox="0 0 83.68 67.705">
  <g id="Group_8953" data-name="Group 8953" transform="translate(1 1)">
    <ellipse id="Ellipse_55" data-name="Ellipse 55" cx="20.468" cy="20.468" rx="20.468" ry="20.468" transform="translate(2.362 25.769)" fill="#f16f5b" opacity="0.13"/>
    <g id="Group_8952" data-name="Group 8952" transform="translate(0 0)">
      <path id="Path_15922" data-name="Path 15922" d="M514.631,206.368a12.524,12.524,0,0,0,11.438,7.419h0a12.52,12.52,0,0,0,12.52-12.52V149.981h-5.259v51.711a7.6,7.6,0,0,1-7.6,7.6h0a7.605,7.605,0,0,1-7.374-5.745" transform="translate(-490.657 -149.981)" fill="none" stroke="#770071" stroke-linecap="round" stroke-linejoin="round" stroke-width="2"/>
      <path id="Rectangle_5023" data-name="Rectangle 5023" d="M3,0H39.593a3,3,0,0,1,3,3V21.006a6,6,0,0,1-6,6H6a6,6,0,0,1-6-6V3A3,3,0,0,1,3,0Z" transform="translate(0 18.639)" fill="none" stroke="#770071" stroke-linecap="round" stroke-linejoin="round" stroke-width="2"/>
      <path id="Path_15923" data-name="Path 15923" d="M505.947,201.737l-5.711-5.449a1.48,1.48,0,0,0-2.13.09l-4.338,4.9a5.507,5.507,0,0,1-6.7,1.231,9.806,9.806,0,0,1-5.209-8.665v-4.209a4.889,4.889,0,0,1,4.889-4.889h26.124a4.889,4.889,0,0,1,4.889,4.889v4.209a9.81,9.81,0,0,1-6,9.04A5.423,5.423,0,0,1,505.947,201.737Z" transform="translate(-478.514 -162.862)" fill="#f16f5b"/>
      <path id="Path_15924" data-name="Path 15924" d="M552.69,180.461s3.9-1.248,12.922,5.283,20.423-2.371,20.423-2.371" transform="translate(-504.759 -161.239)" fill="none" stroke="#770071" stroke-linecap="round" stroke-linejoin="round" stroke-width="2"/>
      <path id="Path_15925" data-name="Path 15925" d="M552.69,191.395s3.9-1.248,12.922,5.282,20.423-2.371,20.423-2.371" transform="translate(-504.759 -165.291)" fill="none" stroke="#770071" stroke-linecap="round" stroke-linejoin="round" stroke-width="2"/>
      <path id="Path_15926" data-name="Path 15926" d="M552.69,201.948s3.9-1.248,12.922,5.283,20.423-2.371,20.423-2.371" transform="translate(-504.759 -169.201)" fill="none" stroke="#770071" stroke-linecap="round" stroke-linejoin="round" stroke-width="2"/>
      <path id="Path_15927" data-name="Path 15927" d="M510.2,229.355a6.227,6.227,0,0,1-6.634-.692,4.519,4.519,0,0,0,.394,1.883c1.192,2.637,4.678,3.637,7.787,2.233s4.662-4.681,3.47-7.32a4.536,4.536,0,0,0-1.152-1.54A6.227,6.227,0,0,1,510.2,229.355Z" transform="translate(-486.559 -177.377)" fill="none" stroke="#770071" stroke-linecap="round" stroke-linejoin="round" stroke-width="2"/>
      <g id="Group_8951" data-name="Group 8951" transform="translate(51.969 31.136)">
        <path id="Path_15928" data-name="Path 15928" d="M572.7,202.724c-.045-2.632-3.554-3.889-5.391-2.92h0a3.91,3.91,0,0,0-1.407,5.074l4.714,7.113-4.889-7.043a3.636,3.636,0,0,0-5.1-.888h0a3.636,3.636,0,0,0-.141,5.816l7.8,6.149-5.106-4a2.224,2.224,0,0,0-3.293.629h0a2.224,2.224,0,0,0,.876,3.086L572.7,222.68l11.937-6.941a2.224,2.224,0,0,0,.876-3.086h0a2.225,2.225,0,0,0-3.293-.629l-5.1,4,7.8-6.149a3.636,3.636,0,0,0-.142-5.816h0a3.636,3.636,0,0,0-5.1.888l-4.889,7.043,4.713-7.113a3.621,3.621,0,0,0-1.407-5.074h0C576.041,198.6,572.665,200.655,572.7,202.724Z" transform="translate(-559.104 -199.445)" fill="#fff" stroke="#770071" stroke-linecap="round" stroke-linejoin="round" stroke-width="2"/>
        <path id="Path_15929" data-name="Path 15929" d="M573.555,233.6l-3.794,4.419h13.706l-3.639-4.419" transform="translate(-563.053 -212.1)" fill="none" stroke="#770071" stroke-linecap="round" stroke-linejoin="round" stroke-width="2"/>
        <line id="Line_91" data-name="Line 91" y2="3.775" transform="translate(13.561 5.132)" fill="none" stroke="#770071" stroke-linecap="round" stroke-linejoin="round" stroke-width="2"/>
      </g>
    </g>
  </g>
</svg>
